<svg width="41" height="28" viewBox="0 0 41 28" fill="none" xmlns="http://www.w3.org/2000/svg">
<path id="Vector" d="M38.668 11.56V6C38.668 2.7 35.968 0 32.668 0H24.668C23.128 0 21.728 0.6 20.668 1.56C19.608 0.6 18.208 0 16.668 0H8.66797C5.36797 0 2.66797 2.7 2.66797 6V11.56C1.44797 12.66 0.667969 14.24 0.667969 16V28H4.66797V24H36.668V28H40.668V16C40.668 14.24 39.888 12.66 38.668 11.56ZM24.668 4H32.668C33.768 4 34.668 4.9 34.668 6V10H22.668V6C22.668 4.9 23.568 4 24.668 4ZM6.66797 6C6.66797 4.9 7.56797 4 8.66797 4H16.668C17.768 4 18.668 4.9 18.668 6V10H6.66797V6ZM4.66797 20V16C4.66797 14.9 5.56797 14 6.66797 14H34.668C35.768 14 36.668 14.9 36.668 16V20H4.66797Z" fill="#509421"/>
</svg>
